<svg width="654" height="655" viewBox="0 0 654 655" fill="none" xmlns="http://www.w3.org/2000/svg">
<path d="M0 1H654V655H0V1Z" fill="#48C2A5"/>
<path fill-rule="evenodd" clip-rule="evenodd" d="M0 654H52.7243L487.146 537.597C518.119 529.298 536.499 497.462 528.2 466.49C519.901 435.517 488.065 417.137 457.093 425.436L0 547.913V654ZM654 0H615.689L191.882 113.559C160.91 121.858 142.529 153.694 150.828 184.666C159.127 215.639 190.963 234.019 221.936 225.72L654 109.949V0ZM136.884 379.613C128.585 348.64 146.966 316.804 177.938 308.505L433.539 240.017C464.511 231.718 496.347 250.099 504.646 281.071C512.945 312.044 494.565 343.879 463.592 352.179L207.992 420.667C177.019 428.966 145.183 410.585 136.884 379.613Z" fill="white"/>
</svg>
