<svg width="2048" height="666" viewBox="0 0 2048 666" fill="none" xmlns="http://www.w3.org/2000/svg">
<rect width="2048" height="666" fill="#48C2A5"/>
<path d="M677 12H1331V666H677V12Z" fill="#48C2A5"/>
<path fill-rule="evenodd" clip-rule="evenodd" d="M677 665H729.724L1164.15 548.597C1195.12 540.298 1213.5 508.462 1205.2 477.49C1196.9 446.517 1165.07 428.137 1134.09 436.436L677 558.913V665ZM1331 11H1292.69L868.882 124.559C837.91 132.858 819.529 164.694 827.828 195.666C836.127 226.639 867.963 245.019 898.936 236.72L1331 120.949V11ZM813.884 390.613C805.585 359.64 823.966 327.804 854.938 319.505L1110.54 251.017C1141.51 242.718 1173.35 261.099 1181.65 292.071C1189.95 323.044 1171.56 354.879 1140.59 363.179L884.992 431.667C854.019 439.966 822.183 421.585 813.884 390.613Z" fill="white"/>
</svg>
