<svg width="4000" height="2400" viewBox="0 0 4000 2400" fill="none" xmlns="http://www.w3.org/2000/svg">
<g clip-path="url(#clip0_944_12)">
<path d="M4494.58 1643.23V2668.44H-494.58V1446.26C-482.44 1439.09 -470.16 1432.28 -458.55 1427.19C-454.48 1434.97 -444.77 1440.8 -438 1446.16C-426.64 1455.14 -415.96 1462.54 -402.64 1468.74C-390.17 1474.55 -377.16 1479.21 -364.9 1485.19C-340.54 1497.06 -316.22 1513.14 -289.78 1519.88C-257.23 1528.19 -228.45 1548.88 -195.69 1554.86C-173.84 1558.85 -149.17 1555.72 -127.03 1555.75C-108.46 1555.78 -89.92 1556.72 -71.51 1553.98C-53.04 1551.23 -35.46 1545.4 -17.42 1540.89C4.77002 1535.33 28.0001 1532.22 50.8101 1532.31C69.2801 1532.38 85.9301 1526.96 104.31 1523.98C159.06 1515.11 206.34 1481.8 261.29 1471.63C286.36 1466.98 303.34 1478.06 327.31 1485.37C352.88 1493.17 376.98 1506.56 402.27 1513.31C406.81 1514.52 411.13 1517.26 415.83 1518.62C429.11 1522.49 443.39 1524.85 456.96 1528.42C484.81 1535.72 511.81 1540.23 540.55 1540.13C545.28 1540.12 550.03 1540.03 554.76 1540.13C567.58 1540.37 576.97 1535.98 589.38 1533.17C627.56 1524.52 667.66 1524.49 706.56 1524.49C728.21 1524.49 751.02 1526.65 772.47 1524.17C788.99 1522.25 802.82 1515.99 818.83 1512.33C843.13 1506.77 866.55 1498.56 890.47 1492.57C890.77 1489.01 891.12 1485.61 891.54 1482.06C897.86 1480.34 905.17 1481.64 911.78 1480.61C930.47 1477.71 950.12 1480.39 968.49 1476.99C985.22 1473.88 1002.13 1464.85 1018.43 1459.84C1032.26 1455.57 1043.44 1451.41 1055.34 1443.32C1079.5 1426.92 1097 1401.78 1125.63 1390.59C1137.32 1386.02 1152.16 1360.33 1165.62 1370.84C1170.9 1374.96 1170.31 1381.4 1173.17 1386.67C1176.89 1393.55 1184.56 1399.91 1190.06 1405.42C1194.42 1409.79 1199.79 1415.59 1204.51 1419.01C1211.01 1423.72 1219.13 1425.22 1227.1 1427.71C1240.02 1431.75 1251.9 1437.57 1265.02 1441.32C1287.23 1447.65 1313.06 1459.05 1336.71 1454.33C1350.51 1451.57 1367.99 1444.97 1379.52 1437.5C1389.07 1431.33 1397.2 1430.02 1406.96 1425.88C1413.83 1422.97 1418.03 1416.75 1424.59 1413.39C1433.92 1408.63 1449.17 1407.91 1459.86 1407.08C1470.05 1406.29 1483 1401.23 1493.16 1403.01C1501.25 1404.41 1507.79 1410.23 1516.32 1411.29C1521.75 1411.98 1535.09 1413.53 1540.03 1411.38C1546.06 1408.78 1543.11 1400.95 1544.37 1394.86C1547.58 1379.42 1557.3 1360.83 1567.13 1349.12C1570.84 1344.7 1584.2 1324.62 1590.68 1324.6C1593.05 1324.59 1593.88 1327.82 1595.36 1328.12C1599.12 1328.88 1602.33 1329.02 1606.22 1328.96C1620.55 1328.75 1631.99 1332.18 1645.31 1335.94C1663.45 1341.06 1683.84 1340.74 1701.06 1348.43C1720.26 1357.01 1730.81 1374.94 1750.74 1382.84C1773.04 1391.67 1797.69 1391.7 1821.26 1391.55C1831.52 1391.49 1836.08 1392.6 1845.51 1396.45C1854.55 1400.12 1863.7 1400.91 1872.69 1403.76C1881.55 1406.58 1890.21 1414.99 1898.7 1419.15C1905.74 1422.59 1911.81 1427.51 1918.86 1430.84C1927.06 1434.73 1939.92 1435.56 1946.76 1441.2C1955.72 1436.08 1962.98 1428.29 1971.59 1422.61C1982.7 1415.28 1994.65 1410.8 2006.55 1405.17C2017.54 1399.97 2029.59 1396.22 2038.09 1387.64C2043.97 1381.69 2049.89 1378.43 2056.38 1373.17C2071.05 1361.28 2082.2 1360.01 2100.48 1360.26C2123.27 1360.56 2141.46 1347.73 2154.07 1329.26C2166.02 1311.74 2180.36 1293.77 2194.62 1278.09C2211.74 1259.27 2234.05 1247.82 2252.56 1230.9C2258.34 1225.64 2264.41 1220.39 2269.68 1214.56C2275.49 1208.14 2278.94 1200.34 2288.21 1205.89C2294.23 1209.5 2298.59 1215.92 2304.87 1219.66C2309.88 1222.63 2315.53 1224.07 2320.49 1227.09C2326.03 1230.49 2331.39 1235.74 2336.21 1240.07C2341.97 1245.24 2347.06 1247.19 2352.83 1251.51C2360.97 1257.59 2364.44 1265.59 2374.19 1270.34C2385.06 1275.62 2398.05 1278.69 2409.74 1282.03C2422.24 1285.62 2435.01 1287.58 2444.32 1297.67C2447.09 1300.67 2448.19 1306.09 2451.24 1308.74C2453.71 1310.89 2462.98 1312.41 2466.09 1312.98C2475.6 1314.69 2488.4 1314.2 2497.95 1312.53C2509.69 1310.46 2521.11 1305.97 2531.79 1300.89C2550.67 1291.88 2570.89 1286.82 2590.01 1278.41C2615.52 1267.2 2642.81 1259.12 2667.74 1246.74C2674.84 1243.22 2681.77 1239.21 2688.08 1235.01C2690.94 1233.1 2693.12 1230.55 2696.69 1229.04C2699.19 1232 2706.43 1232.25 2710.32 1233.14C2716.9 1234.64 2722.88 1234.46 2729.71 1235.39C2748.53 1237.95 2763.87 1246.42 2780.36 1254.69C2796.22 1262.65 2817.67 1264.86 2833.47 1274.23C2837.38 1276.55 2841.35 1279.84 2845.96 1281.26C2850.14 1282.56 2854.61 1281.31 2858.68 1282.41C2860.83 1282.98 2860.9 1285.16 2863.09 1285.6C2874 1287.8 2882.72 1283.69 2892.94 1279.28C2909.18 1272.26 2925.06 1266.72 2942.24 1262.29C2957.21 1258.44 2972.63 1257.64 2987.5 1254.19C2991.03 1253.37 3002.31 1251.9 3004.66 1250.18C3007.89 1247.82 3010.08 1240.41 3013.08 1237.09C3017.96 1231.66 3025.75 1229.67 3029.97 1223.95C3049.51 1235.83 3074.58 1231.63 3095.43 1239.89C3102.15 1242.55 3106.01 1248.32 3111.57 1252.61C3126.33 1263.94 3147.08 1269.44 3163.52 1277.95C3205.83 1299.84 3252.33 1317.62 3290.73 1345.46C3298.12 1350.82 3304.8 1356.99 3312.24 1362.21C3321.22 1368.52 3326.12 1376.79 3334.16 1384.52C3355.47 1405.02 3383.41 1421.26 3407.92 1437.62C3438.32 1457.91 3469.51 1477.22 3500.05 1497.35C3516.08 1507.92 3534.17 1516.04 3548.88 1528.52C3555.93 1534.52 3561.37 1542.56 3569.02 1547.2C3582.15 1555.16 3594.75 1552.14 3607.48 1545.54C3625.81 1536.03 3641.69 1529.1 3661.9 1524.66C3685.39 1519.49 3709.19 1514.99 3732.43 1508.86C3761.56 1501.18 3791.62 1490.03 3816.86 1473.49C3825.21 1468.02 3839.11 1457.75 3848.59 1454.54C3862.15 1476.9 3891.38 1489 3916.09 1496.36C3927.21 1499.67 3939.13 1501.21 3950.39 1504.01C3959.3 1506.23 3965.51 1510.72 3974.27 1513.68C3988.58 1518.52 4004.26 1522.95 4017.32 1530.56C4025.49 1535.29 4031.44 1542.85 4039.59 1547.81C4051.31 1554.94 4063.1 1561.57 4074.61 1569.14C4094.36 1582.11 4114.49 1592.97 4131.09 1610.24C4141.7 1621.27 4148.39 1634.05 4160.09 1644.03C4173.44 1655.42 4187.16 1663.64 4201.89 1673.05C4214.48 1681.08 4230.73 1688.68 4245.5 1689.04C4279.41 1689.9 4310.81 1688.27 4343.34 1677.32C4360.77 1671.47 4377.54 1663.93 4395.38 1659.42C4409.13 1655.95 4422.26 1655.41 4436.17 1653.52C4444.45 1652.4 4451.22 1648.61 4459.03 1646.62C4463.16 1645.58 4466.67 1646.11 4470.88 1645.93C4478.91 1645.59 4486.75 1644.62 4494.55 1643.27L4494.58 1643.23Z" fill="url(#paint0_linear_944_12)"/>
<path d="M4494.58 2186.19V2544.84H-494.58V821.96C-490.27 822.53 -486.25 824.08 -482.71 827.78C-479 831.64 -474.34 837.36 -471.61 841.92C-467.2 849.3 -464.57 852.64 -458.21 858.31C-451.76 864.09 -448.2 869.43 -440.34 873.35C-428.09 879.47 -419.69 872.89 -407 867.45C-394.55 862.13 -384.81 860.93 -371.45 861.13C-359.04 861.33 -345.51 856.53 -334.17 851.36C-321.88 845.76 -309.11 840.64 -297 834.84C-285.9 829.53 -278.36 818.72 -265.92 814.99C-243.13 808.17 -219.56 822.61 -203.19 836.92C-195.47 843.65 -192.61 844.92 -191.65 855.28C-190.95 862.8 -187.85 876.71 -180.99 881.85C-174.19 886.92 -164.33 883.67 -156.66 886.39C-139.47 892.46 -125.06 905.93 -107.44 912.18C-101.58 914.25 -95.42 915.55 -89.96 917.86C-87.66 918.82 -83.23 922.64 -81.25 922.93C-69.24 924.62 -72.41 912.17 -64.33 906.43C-54.2 899.22 -47.59 909.65 -39.3 914.94C-25.74 923.59 -16.29 932.91 -4.24997 943.28C2.30003 948.93 9.20002 952.48 14.8 959.13C17.87 962.77 19.66 966.88 22.34 970.75C24.56 973.97 26.95 975.61 29.61 978.33C34.4 983.23 37.3601 989.5 42.5601 994.21C53.5601 1004.17 68.6401 1007.2 81.9901 1011.61C108.63 1020.42 133.54 1026.94 161.98 1030.47C180.92 1032.83 199.7 1032.26 218.64 1033.57C236.47 1034.79 253.84 1038.89 271.23 1042.7C278.03 1044.2 287.05 1042.9 293.25 1044.75C298.53 1046.34 301.63 1052.22 304.97 1056.33C320.46 1075.36 333.81 1096.08 348.66 1115.65C358.76 1128.94 368.7 1137.55 374.59 1152.83C379.4 1165.3 387.04 1177.67 394.62 1189.01C403.47 1202.28 414.53 1217.73 425.88 1228.95C436.18 1239.13 448.79 1245.13 461.05 1252.13C477.77 1261.66 493.03 1269.25 511.94 1274.72C548.86 1285.41 585.69 1291.44 624.15 1291.35C639.48 1291.32 654.81 1291.35 670.16 1291.35C679.8 1291.35 692.2 1289.23 701.47 1291.65C711.52 1294.27 719.3 1304.37 725.75 1311.79C738.17 1326.06 751.01 1339.11 764.14 1352.44C779.37 1367.91 787.19 1386.61 808.71 1395.97C847.91 1413 892.66 1411.21 933.28 1423.36C945 1426.87 955.65 1431.32 967.2 1434.1C980.95 1437.41 994.36 1439.07 1008.33 1443.88C1023.95 1449.26 1036.01 1460.08 1049.43 1469.6C1075.24 1487.92 1099.1 1508.43 1125.43 1525.8C1130.99 1529.46 1137.47 1535.86 1143.46 1537.24C1151.81 1539.16 1166.65 1532.99 1174.72 1529.82C1188.63 1524.35 1202.7 1522.06 1217.52 1522.1C1231.12 1522.14 1245.72 1520.68 1259.25 1521.9C1272.02 1523.05 1280.04 1528.35 1290.54 1532.87C1306.07 1539.55 1320.33 1549.16 1335.5 1557.29C1345.5 1562.65 1355.68 1566.62 1366.13 1570.98C1378.59 1576.18 1389.2 1584.25 1402.04 1588.78C1442.77 1603.16 1480.96 1616.89 1518.27 1639.42C1528.31 1645.48 1539.45 1650.23 1548.98 1657.02C1556.43 1662.34 1561.42 1671.96 1569.29 1676.52C1579.88 1682.65 1589.45 1682.43 1602 1682.44C1613.75 1682.44 1625.77 1681.64 1637.48 1682.34C1643.92 1682.73 1646.92 1684.8 1652.75 1687.34C1664.66 1692.52 1678.96 1695.35 1691.49 1698.08C1705.14 1701.05 1719.01 1703.63 1732.62 1706.76C1742.97 1709.16 1750 1714.87 1759.48 1718.69C1765.39 1721.06 1772.2 1723.53 1778.17 1725.55C1780.68 1726.4 1782.46 1724.78 1785.27 1726.21C1786.77 1726.98 1787.22 1729.66 1788.65 1730.44C1797.56 1735.31 1809.36 1736.46 1818.24 1740.12C1825.48 1743.12 1831.29 1747.74 1837.9 1751.73C1852.53 1760.56 1868.44 1768.68 1883.52 1777.27C1892.3 1782.27 1902.91 1784.97 1911.23 1789.88C1917.97 1793.85 1923.12 1800.01 1929.57 1804.75C1935.35 1808.99 1946.61 1814.26 1953.99 1815.59C1960.33 1816.74 1967.52 1813.84 1973.82 1815.2C1980.54 1816.65 1984 1819.27 1991.21 1819.36C2003.68 1819.5 2014.47 1823.31 2026.83 1826.04C2068.92 1835.35 2111.83 1828.39 2154.48 1831.91C2199.03 1835.6 2245.86 1833.1 2289.68 1843.55C2301.5 1846.36 2312.23 1852.47 2323.59 1856.61C2344.17 1864.08 2366.8 1864.78 2388.41 1867.29C2448.43 1874.3 2509.04 1865.33 2568.86 1873.99C2621.79 1881.64 2677.57 1880.34 2727.5 1900.58C2753.43 1911.1 2778.86 1922.33 2805.11 1932.1C2826.15 1939.93 2847.45 1947.52 2869.36 1952.59C2884.54 1956.09 2900.51 1957.53 2915.93 1959.99C2936.64 1963.31 2954.02 1969.27 2974.04 1974.88C3015.02 1986.36 3056.92 1991.22 3098.99 1996.28C3126.38 1999.57 3153.89 2002.65 3181.49 2003.24C3219.85 2004.05 3255.89 2008 3294.11 2012.87C3334.2 2017.99 3374.32 2021.84 3414.48 2026.1C3475.42 2032.56 3535.41 2046.61 3596.12 2055.03C3663.37 2064.35 3731.25 2070.76 3798.35 2080.87C3887.3 2094.26 3974.96 2115.04 4063.94 2128.23C4130.75 2138.14 4197.97 2143.41 4264.64 2154.68C4331.97 2166.06 4400.21 2176.39 4468.15 2183.41C4476.96 2184.32 4485.77 2185.22 4494.57 2186.15L4494.58 2186.19Z" fill="url(#paint1_linear_944_12)"/>
<path d="M4494.58 767.15V2716.37H-494.58V1869.45C-454.09 1868.96 -413.86 1867.55 -373.28 1866.05C-310.39 1863.73 -245.19 1864.1 -182.63 1871.6C-160.99 1874.19 -137.65 1872.17 -117.32 1881.38C-109.5 1884.92 -103.35 1889.39 -95.12 1892.11C-73.88 1899.17 -55.23 1899.12 -33.48 1901.24C-11.63 1903.38 9.11 1904.84 31.19 1904.83C36.6 1904.83 42.04 1904.98 47.45 1904.9C59.05 1904.75 67.21 1900.66 78.35 1897.87C101.27 1892.1 125.43 1893.36 148.49 1887.51C168.69 1882.39 188.36 1874.89 208.24 1868.65C226.86 1862.79 247.96 1855.59 264.19 1844.25C272.03 1838.77 275.79 1830.03 284.95 1831.14C293.89 1832.24 304.08 1839.59 312.58 1842.25C327.9 1847.03 341.76 1848.57 357.5 1850.6C384.46 1854.07 411.79 1855.55 439.18 1858.7C475.3 1862.85 510.3 1871.51 546.64 1874.72C568.86 1876.68 591.04 1878.03 613.21 1880.4C626.59 1881.84 637.27 1885.03 650.59 1885.27C671.64 1885.63 680.46 1865.51 692.37 1850.09C696.6 1844.63 702 1840.23 706.6 1835.15C709.12 1832.35 712.17 1826.12 715.08 1824.18C720.82 1820.37 731.8 1819.49 738.37 1817.72C762.14 1811.34 789.35 1815.06 813.86 1814.8C825.73 1814.66 835.8 1818.29 847.37 1819C853.11 1819.36 858.21 1818.56 863.93 1819.6C903.62 1826.81 942.46 1840.59 978.06 1859.47C996.24 1869.12 1014.17 1879.6 1028.66 1894.45C1039.8 1905.88 1048.41 1924.13 1061.6 1933.39C1070.84 1939.87 1079.63 1933.29 1090.47 1932.22C1112.01 1930.1 1132.9 1929.16 1154.48 1928.42C1180.4 1927.55 1205.99 1924.12 1231.98 1924.26C1261.97 1924.41 1291.95 1924.41 1321.94 1924.4C1344.6 1924.39 1374.13 1929.24 1395.43 1921.55C1408.41 1916.86 1421.71 1915.38 1435.56 1913.65C1499.96 1905.62 1565.15 1908.93 1629.93 1908.67C1664.54 1908.53 1698.23 1911.04 1732.58 1914.77C1743.85 1915.99 1759.59 1919.53 1770.75 1916.84C1780.28 1914.55 1789.39 1908.52 1798.61 1904.91C1816.64 1897.86 1834.09 1889.31 1851.75 1881.35C1873.35 1871.62 1893.73 1859.66 1915.24 1849.82C1925.89 1844.95 1934.99 1838.04 1946.05 1834.28C1961.58 1828.98 1977.49 1820.07 1992.78 1813C2008.19 1805.87 2024.41 1801.83 2040.1 1795.37C2050.3 1791.19 2060.15 1786.05 2070.91 1783.31C2094.98 1777.21 2120.07 1773.47 2144.47 1768.76C2155.32 1766.67 2165.96 1764.24 2177.02 1763.91C2184.21 1763.71 2195.16 1766.17 2202.08 1763.75C2208.75 1761.43 2216.35 1755.53 2223.33 1752.38C2230.38 1749.21 2237.73 1747.84 2244.82 1745C2254.27 1741.19 2262.36 1734.56 2271.29 1729.9C2315.65 1706.76 2362.6 1688.18 2407.61 1666.22C2423.17 1658.62 2438.94 1651.49 2454.52 1643.91C2465.73 1638.45 2471.7 1629.52 2481.94 1623.75C2498.92 1614.19 2526.78 1619.37 2545.42 1619.37C2576.88 1619.37 2608.96 1622.08 2638.76 1610.75C2680 1595.08 2723.91 1580.1 2746.85 1539.53C2751.52 1531.28 2753.77 1524.84 2759.16 1517C2764.25 1509.59 2770.07 1500.28 2771.25 1491.29C2772.12 1484.67 2767.64 1472.05 2770.61 1466.25C2773.71 1460.2 2782.9 1460.12 2788.53 1459C2809.44 1454.88 2829.11 1445.99 2848.96 1439.36C2880.82 1428.7 2914.9 1428.54 2947.71 1423.03C2970.31 1419.24 2992.99 1413.82 3015.21 1408.14C3025.71 1405.45 3036.06 1400.91 3046.9 1400.17C3056.94 1399.48 3064.92 1402.03 3073.33 1396.98C3089.77 1387.14 3106.33 1372.47 3120.56 1359.59C3134.04 1347.38 3149.59 1336.64 3160.2 1321.76C3166.19 1313.36 3170.01 1303.49 3175.07 1294.54C3179.53 1286.66 3181.15 1285.91 3189.45 1281.22C3209.44 1269.93 3229.27 1259.58 3250.84 1251.66C3261.99 1247.56 3271.93 1246.55 3282.82 1243.24C3289.96 1241.08 3299.44 1236.03 3306.24 1232.67C3317.41 1227.15 3326.53 1216.7 3334.93 1207.73C3347.5 1194.32 3354.33 1175.87 3364.28 1160.62C3370.62 1150.91 3376.14 1144.75 3384.61 1136.83C3393.65 1128.38 3402.78 1121.75 3412.61 1114.19C3420.55 1108.09 3428.82 1101.21 3436.27 1095.3C3440.09 1092.28 3443.97 1088.55 3449.14 1087.73C3457.63 1086.38 3464.73 1092.65 3472.4 1095.78C3478.88 1098.42 3486.26 1100.99 3493.18 1102.23C3499.46 1103.35 3505.65 1102.34 3511.85 1104C3522.62 1106.89 3528.78 1117.78 3540.97 1114.03C3548.6 1111.67 3554.12 1105.63 3559.55 1100.16C3567.1 1092.54 3575.54 1088.98 3584.07 1082.67C3603.62 1068.21 3621.71 1051.65 3641 1036.84C3662.74 1020.15 3688.97 1007.74 3714.94 999.32C3726.14 995.7 3736.83 994.43 3748.43 990.19C3774.46 980.63 3799.47 970.68 3820.45 952.55C3830.33 944.02 3835.4 933.96 3845.82 944.69C3855.1 954.24 3860.44 967.3 3868.29 978.05C3874.94 987.15 3880.08 989.46 3890.74 993.08C3908.26 999.05 3918 1010.03 3931.89 1021.18C3940.65 1028.21 3946.04 1043.62 3959.16 1040.79C3966.81 1039.14 3972.19 1031.31 3978.54 1026.87C3988.43 1019.94 3998 1013.04 4007.64 1005.71C4025.97 991.75 4043.69 977.42 4060.1 961.16C4073.92 947.46 4087.61 933.97 4105.62 925.49C4115.16 921 4122.72 919.39 4131.56 913.02C4140.61 906.51 4151.32 901.45 4159.8 894.32C4165.79 889.29 4169.98 881.49 4178.03 879.9C4182.57 879.01 4188.74 880.17 4193.47 880.19C4210.57 880.24 4227.68 880.19 4244.79 880.19C4256.53 880.19 4265.92 881.98 4275.44 875.39C4281.94 870.89 4289.71 869.01 4295.49 863.86C4302.81 857.35 4306.39 848.43 4314.82 842.06C4326.64 833.13 4338.01 822.47 4349.22 812.64C4357.8 805.12 4367.37 801.42 4376.38 793.26C4387.78 782.94 4393.35 770.37 4402.72 759.07C4408.64 751.92 4414.61 747.69 4421.84 742.87C4431.52 736.42 4439.61 734.14 4451.72 735.4C4460.71 736.34 4467.9 743.36 4475.12 749.18C4481.97 754.7 4488.33 760.89 4494.62 767.18L4494.58 767.15Z" fill="url(#paint2_linear_944_12)"/>
<path d="M4494.58 954.63V2716.37H-494.58V2177.94C-466.18 2174.6 -437.7 2171.59 -409.29 2169.17C-372.16 2166 -333.89 2163.65 -296.61 2162.85C-251 2161.88 -205.53 2158.81 -159.89 2158.96C-47.75 2159.32 64.39 2158.84 176.53 2159.09C240.23 2159.23 303.82 2157.65 367.37 2152.89C429.65 2148.22 490.73 2140.62 553.39 2139.61C681.2 2137.56 811.34 2140.55 937.89 2159.69C1004.45 2169.77 1071.31 2185.14 1137.38 2198.43C1187.5 2208.51 1235.34 2212.55 1286.47 2213.56C1423.28 2216.25 1562.6 2203.02 1694.95 2166.77C1794.4 2139.55 1886.19 2100.69 1974.86 2048.63C1998.39 2034.81 2021.22 2025.74 2047.41 2017.36C2087.85 2004.4 2131 2002.51 2172.29 1992.87C2212.77 1983.44 2254.33 1979.8 2294.63 1969.65C2329.46 1960.88 2363.11 1948.01 2397.01 1936.27C2416.29 1929.6 2436.16 1921.64 2453.92 1911.41C2477.55 1897.79 2502.63 1887.11 2529.64 1879.83C2560.98 1871.37 2590.81 1858.44 2622.09 1849.68C2648.4 1842.32 2675.09 1837.21 2701.26 1829.27C2724.75 1822.15 2750 1823.4 2772.94 1816.88C2790.27 1811.96 2806.63 1797.54 2821.26 1786.83C2855.84 1761.51 2894.3 1740.4 2925.49 1711.12C2938.82 1698.59 2956.62 1688.02 2974.05 1681.98C2994.04 1675.06 3011.54 1663.34 3030.01 1653.08C3048.2 1642.99 3066.72 1631.85 3081.45 1616.99C3091.98 1606.38 3106.23 1592.91 3107.48 1576.9C3116.63 1574.25 3129.2 1574.08 3138.99 1572.4C3149.43 1570.63 3160.12 1569.79 3170.48 1567.63C3196.3 1562.23 3222.77 1554.89 3249.14 1552.86C3268.12 1551.41 3286.91 1548.5 3306 1548.84C3318.35 1549.05 3328.14 1548.1 3339.96 1545.39C3346.56 1543.88 3349.89 1544.85 3354.93 1539.33C3360.19 1533.57 3362.26 1525.14 3365.92 1518.62C3372.81 1506.36 3382.26 1493.97 3392.51 1485.43C3396.07 1482.46 3398.03 1480.43 3401.66 1478.06C3405.94 1475.26 3410.6 1473.4 3415.41 1471.01C3450.13 1453.76 3485.2 1438.34 3522.4 1426.77C3546.22 1419.36 3572.8 1406.33 3597.8 1404.06C3610 1402.95 3618.7 1406.96 3628.73 1398.74C3636.96 1391.99 3642.16 1382.24 3650.15 1375.31C3660.38 1366.43 3671.72 1359.22 3681.55 1349.66C3704.59 1327.26 3736.3 1306.93 3754.3 1279.91C3757.33 1275.35 3759.06 1270.56 3762.6 1266.37C3768.41 1259.5 3775.93 1257.8 3784.37 1253.69C3814.45 1239.05 3845.39 1223.78 3874.7 1207.69C3900.89 1193.3 3925.8 1177.26 3952.68 1163.99C3973.38 1153.76 3993.64 1142.46 4013.35 1130.41C4025.72 1122.85 4034.84 1113.02 4045.55 1103.6C4079.87 1073.47 4126.64 1062.82 4169.88 1049.42C4213.32 1035.96 4257.91 1021.26 4302.9 1013.95C4329.88 1009.56 4354.76 1008.42 4380.75 999.63C4419.93 986.39 4457.52 971.83 4494.58 954.64V954.63Z" fill="url(#paint3_linear_944_12)"/>
<path d="M4494.58 1112.02V2716.37H-494.58V2116.2C-427.46 2105.76 -356.95 2112.35 -289.21 2112.03C-243.19 2111.82 -197.49 2115.92 -151.5 2116.12C-124.09 2116.23 -97.38 2112.06 -69.92 2112.15C42.36 2112.5 154.02 2116.02 266.2 2122.06C306.28 2124.22 346.32 2123.06 386.38 2124.63C420.5 2125.97 454.51 2129.3 488.61 2130.9C524.17 2132.57 559.81 2131.69 595.4 2131.69C609.11 2131.69 620.31 2132.41 633.34 2128.14C653.18 2121.64 674.13 2118.58 694.36 2113.49C729.73 2104.57 764.23 2095.02 800.17 2088.27C882.8 2072.73 967.94 2065.11 1051.8 2060.15C1091.9 2057.78 1131.79 2053.27 1171.98 2053.49C1202.28 2053.65 1231.87 2052.59 1262.1 2050.04C1319.94 2045.15 1378.45 2044.63 1436.48 2045.47C1483.08 2046.13 1529.26 2053.02 1575.78 2053.67C1616.1 2054.23 1655.67 2052.03 1695.24 2044.69C1738.84 2036.59 1780.29 2018.75 1821.75 2002.82C1853.61 1990.58 1884.44 1977.62 1913.85 1960.22C1924.76 1953.76 1934.56 1947.09 1946.32 1942.92C1954.67 1939.97 1960.8 1941.45 1969.29 1940.36C1976.87 1939.4 1983.79 1935.33 1991.04 1933.11C2000.75 1930.15 2010.11 1929.09 2020.21 1928.34C2044.01 1926.59 2066.72 1923.5 2090.78 1924.23C2104.85 1924.65 2118.44 1927.14 2132.42 1927.97C2145.87 1928.74 2159.44 1927.22 2172.81 1929.19C2186.17 1931.15 2198.49 1932.63 2212 1932.23C2226.15 1931.82 2237.78 1925.92 2251.64 1922.5C2310.61 1907.95 2369.14 1888.34 2429.66 1881.33C2440.96 1880.02 2450.77 1877.39 2462.16 1877.49C2468.35 1877.54 2475.19 1878.38 2481.34 1877.69C2501.38 1875.44 2521.42 1870.44 2541.77 1869.47C2568.48 1868.17 2595.59 1869.73 2622.35 1869.57C2637.91 1869.48 2652.15 1870.64 2667.41 1872.71C2671.88 1873.32 2676.52 1874.32 2681.09 1873.66C2689.33 1872.47 2697.16 1868.62 2705.02 1864.94C2740.75 1848.22 2775.21 1828.67 2810.77 1811.99C2827.09 1804.33 2844.93 1807.11 2862.62 1807.09C2888.23 1807.08 2914.15 1805.9 2939.74 1806.89C2954.35 1807.45 2967.48 1811.08 2982.13 1811C2995.11 1810.93 3008.12 1810.93 3021.12 1810.99C3057.81 1811.17 3096.26 1807.84 3131.89 1798.47C3156.7 1791.96 3181.71 1786.36 3206.54 1780C3225.14 1775.24 3242.62 1766.77 3260.99 1761.2C3284.77 1753.98 3307.64 1746.33 3330.97 1737.66C3370.51 1722.98 3410.53 1706.65 3451 1696.71C3503.44 1683.83 3557.29 1657.33 3602.97 1629.22C3652.34 1598.86 3698.51 1562.22 3742.51 1524.55C3749.96 1518.15 3754.95 1510.64 3762.8 1504.87C3789.79 1485.03 3812.34 1462.21 3835.61 1438.04C3846.91 1426.31 3854.06 1411.73 3865.38 1399.95C3871.05 1394.05 3877.13 1388.48 3882.95 1382.72C3892.05 1373.7 3901.27 1364.13 3909.43 1354.3C3913.2 1349.75 3915.86 1344.94 3919.82 1340.81C3925.98 1334.38 3934.04 1329.12 3939.75 1322.06C3944.58 1316.08 3948.86 1312.63 3956.06 1311.27C3964.64 1309.65 3973.65 1308.86 3982.45 1307.36C3992.2 1305.7 4001.33 1305.44 4010.88 1303.45C4020.84 1301.38 4031.21 1301.46 4041.39 1299.54C4054.55 1297.07 4068.03 1299.94 4081.23 1297.8C4093.65 1295.79 4104.76 1294.58 4117.56 1294.75C4133.27 1294.96 4142.36 1286.13 4155.47 1280.08C4161.24 1277.43 4164.75 1274.06 4170.05 1271.19C4174.1 1269 4180.99 1269.12 4185.39 1267.57C4197.73 1263.22 4209.06 1256.8 4221.72 1252.82C4236.65 1248.11 4248.23 1242.88 4260.11 1232.29C4266.6 1226.51 4274.02 1221.1 4279.86 1214.59C4284.53 1209.38 4287.4 1202.83 4292.17 1197.76C4298.1 1191.44 4306.83 1184.09 4314.74 1180.19C4320.93 1177.14 4328.25 1176.95 4334.28 1175.47C4340.31 1173.98 4347.48 1172.06 4353.83 1169.61C4365.47 1165.12 4377.35 1163.18 4388.75 1157.27C4398.45 1152.25 4406.93 1145.41 4416.47 1140.17C4428.04 1133.82 4440.15 1130.04 4452.54 1125.54C4466.54 1120.46 4480.47 1116.11 4494.53 1112.06L4494.58 1112.02Z" fill="url(#paint4_linear_944_12)"/>
<path d="M4494.58 2062.73V2692.9H-494.58V1052.27C-491.32 1052.28 -488.05 1052.27 -484.79 1052.26C-471.33 1052.17 -458.91 1055.37 -445.59 1056.28C-426.72 1057.57 -407.77 1059.33 -389.27 1063.8C-366.28 1069.35 -347.94 1084.98 -325.32 1090.7C-296.82 1097.9 -268.77 1108.82 -241.88 1118.66C-191.6 1137.06 -138.49 1158.65 -94.63 1190.33C-51.24 1221.66 -6.24999 1250.19 36.07 1283.09C44.11 1289.35 52.36 1298.38 62.25 1301.68C91.67 1311.46 124.46 1315.12 155.04 1319.06C187.08 1323.18 218.38 1332.24 249.94 1338.91C252.76 1339.5 261.89 1340.18 264.8 1342.42C269.36 1345.89 269.17 1350.34 276.67 1350.14C279.69 1367.23 287.67 1378.64 296.85 1393.42C314.53 1421.89 335.77 1447.64 363.41 1467.17C373.99 1474.64 384.24 1481.28 396.75 1484.62C403.54 1486.44 411.51 1487.17 417.44 1491.24C419.89 1492.91 421.51 1496.06 423.86 1497.92C432.11 1504.43 444.59 1509.1 453.9 1513.87C471.44 1522.85 491.38 1526.41 509.87 1533.13C529.81 1540.38 549.41 1548.43 569.34 1555.73C593.62 1564.64 618.67 1571.35 642.53 1580.73C651.86 1584.4 662.31 1586.73 673.03 1588.84C717.68 1597.64 761.59 1609.27 803.76 1626.3C820.75 1633.16 836.73 1638.26 853.23 1646.8C863.57 1652.16 874.11 1657.87 884.66 1662.72C895.66 1667.78 904.6 1671.12 914.87 1678.44C937.48 1694.56 957.4 1713.12 976.96 1732.66C996.69 1752.36 1015.19 1778.4 1041.7 1789.78C1049.79 1793.25 1056.91 1796.53 1064.56 1801.49C1085.1 1814.81 1111.38 1822.47 1135.99 1822.88C1155.54 1823.22 1177.57 1820.62 1196.02 1824.67C1205.02 1826.66 1215.07 1831.35 1224.87 1833.47C1243.25 1837.44 1261.98 1839.94 1280.38 1844.21C1289.77 1846.4 1299.31 1848.08 1308.67 1850.18C1313.6 1851.29 1315.87 1852.79 1320.33 1854.1C1327.03 1856.09 1335.95 1855.17 1343.12 1856.85C1361.2 1861.06 1379.08 1862.57 1397.63 1863.73C1466.74 1868.09 1533.66 1879.26 1601.22 1894.18C1622.68 1898.92 1644.09 1904.49 1665.11 1910.92C1673.49 1913.48 1681.24 1916.49 1690.03 1916.75C1711.11 1917.39 1731.43 1920.55 1752.89 1920.46C1776.33 1920.37 1799.96 1921.6 1823.35 1920.15C1845.21 1918.79 1866.49 1916.31 1888.47 1916.48C1903.29 1916.59 1918.06 1915.21 1930.76 1920.37C1945.61 1926.42 1961.77 1931.44 1978.63 1933.3C2026.3 1938.57 2072.81 1947.1 2120.03 1955.59C2176.28 1965.7 2232.11 1983.11 2289.34 1986.19C2321.61 1987.91 2354.31 1986.74 2384.58 1997.95C2393.52 2001.26 2401.37 2002.78 2410.92 2002.63C2421.92 2002.46 2432.31 2003.37 2443.27 2004.58C2472.74 2007.82 2502.31 2006.57 2531.95 2006.49C2610.56 2006.28 2687.82 2011.5 2766.13 2017.31C2841.32 2022.87 2917.3 2027.58 2991.07 2043.86C2999.36 2045.7 3007.83 2047.81 3016.25 2048.98C3022.8 2049.89 3030 2048.29 3036.3 2049.92C3043.12 2051.68 3046.74 2053.14 3054.78 2053.84C3095.58 2057.36 3135.82 2058.34 3177.1 2056.79C3236.99 2054.53 3296.87 2046.9 3356.55 2041.64C3420.33 2036.03 3484.45 2032.92 3548.45 2030.72C3671.18 2026.5 3790.29 2037.93 3910.01 2064.34C3978.58 2079.47 4043.42 2104.46 4114.6 2104.59C4153.97 2104.67 4194.02 2106.26 4233.27 2103.7C4274.11 2101.03 4313.14 2092.88 4353.34 2085.82C4389.8 2079.42 4426.3 2071.48 4463.05 2067.02C4473.51 2065.76 4484.04 2064.26 4494.58 2062.73Z" fill="url(#paint5_linear_944_12)"/>
</g>
<defs>
<linearGradient id="paint0_linear_944_12" x1="2000" y1="794.12" x2="2000" y2="2123.85" gradientUnits="userSpaceOnUse">
<stop stop-color="#5452B8"/>
<stop offset="1" stop-color="#3B3894"/>
</linearGradient>
<linearGradient id="paint1_linear_944_12" x1="2016.23" y1="843.42" x2="1984.94" y2="2462.57" gradientUnits="userSpaceOnUse">
<stop stop-color="#393686"/>
<stop offset="1" stop-color="#2A2770"/>
</linearGradient>
<linearGradient id="paint2_linear_944_12" x1="2183.77" y1="700.2" x2="2066.46" y2="1716.91" gradientUnits="userSpaceOnUse">
<stop stop-color="#393686"/>
<stop offset="1" stop-color="#2A2770"/>
</linearGradient>
<linearGradient id="paint3_linear_944_12" x1="2031.83" y1="2030.96" x2="2133.5" y2="701.38" gradientUnits="userSpaceOnUse">
<stop stop-color="#19165A"/>
<stop offset="1" stop-color="#322F7C"/>
</linearGradient>
<linearGradient id="paint4_linear_944_12" x1="2009.46" y1="1168.11" x2="2001.63" y2="2200.6" gradientUnits="userSpaceOnUse">
<stop stop-color="#241F78"/>
<stop offset="1" stop-color="#040839"/>
</linearGradient>
<linearGradient id="paint5_linear_944_12" x1="2000" y1="1239.97" x2="2000" y2="1983.06" gradientUnits="userSpaceOnUse">
<stop stop-color="#241F78"/>
<stop offset="1" stop-color="#040839"/>
</linearGradient>
<clipPath id="clip0_944_12">
<rect width="4000" height="2400" fill="white"/>
</clipPath>
</defs>
</svg>
