<?xml version="1.0" encoding="UTF-8"?><svg id="a" xmlns="http://www.w3.org/2000/svg" xmlns:xlink="http://www.w3.org/1999/xlink" viewBox="0 0 4000 2400"><defs><style>.m{fill:url(#j);}.n{fill:url(#h);}.o{fill:url(#i);}.p{fill:url(#l);}.q{fill:url(#f);}.r{fill:url(#g);}.s{fill:url(#e);}.t{fill:url(#d);}.u{fill:url(#b);}.v{fill:url(#c);}.w{fill:url(#k);}</style><linearGradient id="b" x1="2000" y1="2502.37" x2="2000" y2="-123.5" gradientUnits="userSpaceOnUse"><stop offset=".61" stop-color="#4c52c0"/><stop offset="1" stop-color="#1c156a"/></linearGradient><radialGradient id="c" cx="4823.1" cy="2444.1" fx="4823.1" fy="2444.1" r="5.94" gradientTransform="translate(-1547.07 -4479.43) rotate(45.02) skewX(.04)" gradientUnits="userSpaceOnUse"><stop offset="0" stop-color="#b2b2b2"/><stop offset="1" stop-color="#fff"/></radialGradient><radialGradient id="d" cx="6622.95" cy="327.83" fx="6622.95" fy="327.83" r="14.42" xlink:href="#c"/><radialGradient id="e" cx="5016.45" cy="2317.4" fx="5016.45" fy="2317.4" r="14.42" xlink:href="#c"/><radialGradient id="f" cx="5495.59" cy="1332.67" fx="5495.59" fy="1332.67" r="14.42" xlink:href="#c"/><radialGradient id="g" cx="7207.7" cy="219.86" fx="7207.7" fy="219.86" r="5.94" xlink:href="#c"/><radialGradient id="h" cx="6274.58" cy="553.67" fx="6274.58" fy="553.67" r="5.94" xlink:href="#c"/><radialGradient id="i" cx="5333.48" cy="1541.91" fx="5333.48" fy="1541.91" r="5.94" xlink:href="#c"/><radialGradient id="j" cx="5941.31" cy="1266.7" fx="5941.31" fy="1266.7" r="5.94" xlink:href="#c"/><radialGradient id="k" cx="5035.1" cy="2036.54" fx="5035.1" fy="2036.54" r="5.94" xlink:href="#c"/><radialGradient id="l" cx="5810.09" cy="1842.42" fx="5810.09" fy="1842.42" r="5.94" xlink:href="#c"/></defs><rect class="u" x="-494.58" y="-123.5" width="4989.17" height="2625.87"/><polygon class="v" points="139.76 664.95 145.2 667.93 139.76 670.91 136.79 676.35 133.81 670.91 128.38 667.93 133.81 664.95 136.79 659.51 139.76 664.95"/><polygon class="t" points="2915.83 436.59 2929.03 443.81 2915.83 451.03 2908.62 464.23 2901.4 451.03 2888.21 443.81 2901.4 436.59 2908.62 423.39 2915.83 436.59"/><polygon class="s" points="370.54 707.91 383.73 715.13 370.54 722.35 363.32 735.55 356.11 722.35 342.91 715.13 356.11 707.91 363.32 694.71 370.54 707.91"/><polygon class="q" points="1406.66 349.8 1419.85 357.02 1406.66 364.24 1399.44 377.44 1392.23 364.24 1379.04 357.02 1392.23 349.8 1399.44 336.6 1406.66 349.8"/><polygon class="r" points="3401.9 778.53 3407.34 781.51 3401.9 784.48 3398.92 789.92 3395.95 784.48 3390.51 781.51 3395.95 778.53 3398.92 773.09 3401.9 778.53"/><polygon class="n" points="2505.17 354.05 2510.6 357.02 2505.17 360 2502.19 365.44 2499.22 360 2493.78 357.02 2499.22 354.05 2502.19 348.6 2505.17 354.05"/><polygon class="o" points="1139.58 387.43 1145.02 390.41 1139.58 393.38 1136.61 398.83 1133.63 393.38 1128.19 390.41 1133.63 387.43 1136.61 381.99 1139.58 387.43"/><polygon class="m" points="1764.6 623.03 1770.03 626 1764.6 628.98 1761.62 634.42 1758.65 628.98 1753.21 626 1758.65 623.03 1761.62 617.58 1764.6 623.03"/><polygon class="w" points="578.29 526.44 583.73 529.41 578.29 532.39 575.31 537.83 572.34 532.39 566.9 529.41 572.34 526.44 575.31 521 578.29 526.44"/><polygon class="p" points="1264.23 937.86 1269.66 940.84 1264.23 943.81 1261.25 949.26 1258.28 943.81 1252.84 940.84 1258.28 937.86 1261.25 932.42 1264.23 937.86"/></svg>