<?xml version="1.0" encoding="UTF-8"?><svg id="a" xmlns="http://www.w3.org/2000/svg" xmlns:xlink="http://www.w3.org/1999/xlink" viewBox="0 0 4000 2400"><defs><style>.h{fill:url(#f);}.i{fill:url(#g);}.j{fill:url(#e);}.k{fill:url(#d);}.l{fill:url(#b);}.m{fill:url(#c);}</style><linearGradient id="b" x1="2000" y1="794.12" x2="2000" y2="2123.85" gradientUnits="userSpaceOnUse"><stop offset="0" stop-color="#5452b8"/><stop offset="1" stop-color="#3b3894"/></linearGradient><linearGradient id="c" x1="2016.23" y1="843.42" x2="1984.94" y2="2462.57" gradientUnits="userSpaceOnUse"><stop offset="0" stop-color="#393686"/><stop offset="1" stop-color="#2a2770"/></linearGradient><linearGradient id="d" x1="2183.77" y1="700.2" x2="2066.46" y2="1716.91" xlink:href="#c"/><linearGradient id="e" x1="2031.83" y1="2030.96" x2="2133.5" y2="701.38" gradientUnits="userSpaceOnUse"><stop offset="0" stop-color="#19165a"/><stop offset="1" stop-color="#322f7c"/></linearGradient><linearGradient id="f" x1="2009.46" y1="1168.11" x2="2001.63" y2="2200.6" gradientUnits="userSpaceOnUse"><stop offset="0" stop-color="#241f78"/><stop offset="1" stop-color="#040839"/></linearGradient><linearGradient id="g" x1="2000" y1="1239.97" x2="2000" y2="1983.06" xlink:href="#f"/></defs><path class="l" d="m4494.58,1643.23v1025.21H-494.58v-1222.18c12.14-7.17,24.42-13.98,36.03-19.07,4.07,7.78,13.78,13.61,20.55,18.97,11.36,8.98,22.04,16.38,35.36,22.58,12.47,5.81,25.48,10.47,37.74,16.45,24.36,11.87,48.68,27.95,75.12,34.69,32.55,8.31,61.33,29,94.09,34.98,21.85,3.99,46.52.86,68.66.89,18.57.03,37.11.97,55.52-1.77,18.47-2.75,36.05-8.58,54.09-13.09,22.19-5.56,45.42-8.67,68.23-8.58,18.47.07,35.12-5.35,53.5-8.33,54.75-8.87,102.03-42.18,156.98-52.35,25.07-4.65,42.05,6.43,66.02,13.74,25.57,7.8,49.67,21.19,74.96,27.94,4.54,1.21,8.86,3.95,13.56,5.31,13.28,3.87,27.56,6.23,41.13,9.8,27.85,7.3,54.85,11.81,83.59,11.71,4.73-.01,9.48-.1,14.21,0,12.82.24,22.21-4.15,34.62-6.96,38.18-8.65,78.28-8.68,117.18-8.68,21.65,0,44.46,2.16,65.91-.32,16.52-1.92,30.35-8.18,46.36-11.84,24.3-5.56,47.72-13.77,71.64-19.76.3-3.56.65-6.96,1.07-10.51,6.32-1.72,13.63-.42,20.24-1.45,18.69-2.9,38.34-.22,56.71-3.62,16.73-3.11,33.64-12.14,49.94-17.15,13.83-4.27,25.01-8.43,36.91-16.52,24.16-16.4,41.66-41.54,70.29-52.73,11.69-4.57,26.53-30.26,39.99-19.75,5.28,4.12,4.69,10.56,7.55,15.83,3.72,6.88,11.39,13.24,16.89,18.75,4.36,4.37,9.73,10.17,14.45,13.59,6.5,4.71,14.62,6.21,22.59,8.7,12.92,4.04,24.8,9.86,37.92,13.61,22.21,6.33,48.04,17.73,71.69,13.01,13.8-2.76,31.28-9.36,42.81-16.83,9.55-6.17,17.68-7.48,27.44-11.62,6.87-2.91,11.07-9.13,17.63-12.49,9.33-4.76,24.58-5.48,35.27-6.31,10.19-.79,23.14-5.85,33.3-4.07,8.09,1.4,14.63,7.22,23.16,8.28,5.43.69,18.77,2.24,23.71.09,6.03-2.6,3.08-10.43,4.34-16.52,3.21-15.44,12.93-34.03,22.76-45.74,3.71-4.42,17.07-24.5,23.55-24.52,2.37-.01,3.2,3.22,4.68,3.52,3.76.76,6.97.9,10.86.84,14.33-.21,25.77,3.22,39.09,6.98,18.14,5.12,38.53,4.8,55.75,12.49,19.2,8.58,29.75,26.51,49.68,34.41,22.3,8.83,46.95,8.86,70.52,8.71,10.26-.06,14.82,1.05,24.25,4.9,9.04,3.67,18.19,4.46,27.18,7.31,8.86,2.82,17.52,11.23,26.01,15.39,7.04,3.44,13.11,8.36,20.16,11.69,8.2,3.89,21.06,4.72,27.9,10.36,8.96-5.12,16.22-12.91,24.83-18.59,11.11-7.33,23.06-11.81,34.96-17.44,10.99-5.2,23.04-8.95,31.54-17.53,5.88-5.95,11.8-9.21,18.29-14.47,14.67-11.89,25.82-13.16,44.1-12.91,22.79.3,40.98-12.53,53.59-31,11.95-17.52,26.29-35.49,40.55-51.17,17.12-18.82,39.43-30.27,57.94-47.19,5.78-5.26,11.85-10.51,17.12-16.34,5.81-6.42,9.26-14.22,18.53-8.67,6.02,3.61,10.38,10.03,16.66,13.77,5.01,2.97,10.66,4.41,15.62,7.43,5.54,3.4,10.9,8.65,15.72,12.98,5.76,5.17,10.85,7.12,16.62,11.44,8.14,6.08,11.61,14.08,21.36,18.83,10.87,5.28,23.86,8.35,35.55,11.69,12.5,3.59,25.27,5.55,34.58,15.64,2.77,3,3.87,8.42,6.92,11.07,2.47,2.15,11.74,3.67,14.85,4.24,9.51,1.71,22.31,1.22,31.86-.45,11.74-2.07,23.16-6.56,33.84-11.64,18.88-9.01,39.1-14.07,58.22-22.48,25.51-11.21,52.8-19.29,77.73-31.67,7.1-3.52,14.03-7.53,20.34-11.73,2.86-1.91,5.04-4.46,8.61-5.97,2.5,2.96,9.74,3.21,13.63,4.1,6.58,1.5,12.56,1.32,19.39,2.25,18.82,2.56,34.16,11.03,50.65,19.3,15.86,7.96,37.31,10.17,53.11,19.54,3.91,2.32,7.88,5.61,12.49,7.03,4.18,1.3,8.65.05,12.72,1.15,2.15.57,2.22,2.75,4.41,3.19,10.91,2.2,19.63-1.91,29.85-6.32,16.24-7.02,32.12-12.56,49.3-16.99,14.97-3.85,30.39-4.65,45.26-8.1,3.53-.82,14.81-2.29,17.16-4.01,3.23-2.36,5.42-9.77,8.42-13.09,4.88-5.43,12.67-7.42,16.89-13.14,19.54,11.88,44.61,7.68,65.46,15.94,6.72,2.66,10.58,8.43,16.14,12.72,14.76,11.33,35.51,16.83,51.95,25.34,42.31,21.89,88.81,39.67,127.21,67.51,7.39,5.36,14.07,11.53,21.51,16.75,8.98,6.31,13.88,14.58,21.92,22.31,21.31,20.5,49.25,36.74,73.76,53.1,30.4,20.29,61.59,39.6,92.13,59.73,16.03,10.57,34.12,18.69,48.83,31.17,7.05,6,12.49,14.04,20.14,18.68,13.13,7.96,25.73,4.94,38.46-1.66,18.33-9.51,34.21-16.44,54.42-20.88,23.49-5.17,47.29-9.67,70.53-15.8,29.13-7.68,59.19-18.83,84.43-35.37,8.35-5.47,22.25-15.74,31.73-18.95,13.56,22.36,42.79,34.46,67.5,41.82,11.12,3.31,23.04,4.85,34.3,7.65,8.91,2.22,15.12,6.71,23.88,9.67,14.31,4.84,29.99,9.27,43.05,16.88,8.17,4.73,14.12,12.29,22.27,17.25,11.72,7.13,23.51,13.76,35.02,21.33,19.75,12.97,39.88,23.83,56.48,41.1,10.61,11.03,17.3,23.81,29,33.79,13.35,11.39,27.07,19.61,41.8,29.02,12.59,8.03,28.84,15.63,43.61,15.99,33.91.86,65.31-.77,97.84-11.72,17.43-5.85,34.2-13.39,52.04-17.9,13.75-3.47,26.88-4.01,40.79-5.9,8.28-1.12,15.05-4.91,22.86-6.9,4.13-1.04,7.64-.51,11.85-.69,8.03-.34,15.87-1.31,23.67-2.66Z"/><path class="m" d="m4494.58,2186.19v358.65H-494.58V821.96c4.31.57,8.33,2.12,11.87,5.82,3.71,3.86,8.37,9.58,11.1,14.14,4.41,7.38,7.04,10.72,13.4,16.39,6.45,5.78,10.01,11.12,17.87,15.04,12.25,6.12,20.65-.46,33.34-5.9,12.45-5.32,22.19-6.52,35.55-6.32,12.41.2,25.94-4.6,37.28-9.77,12.29-5.6,25.06-10.72,37.17-16.52,11.1-5.31,18.64-16.12,31.08-19.85,22.79-6.82,46.36,7.62,62.73,21.93,7.72,6.73,10.58,8,11.54,18.36.7,7.52,3.8,21.43,10.66,26.57,6.8,5.07,16.66,1.82,24.33,4.54,17.19,6.07,31.6,19.54,49.22,25.79,5.86,2.07,12.02,3.37,17.48,5.68,2.3.96,6.73,4.78,8.71,5.07,12.01,1.69,8.84-10.76,16.92-16.5,10.13-7.21,16.74,3.22,25.03,8.51,13.56,8.65,23.01,17.97,35.05,28.34,6.55,5.65,13.45,9.2,19.05,15.85,3.07,3.64,4.86,7.75,7.54,11.62,2.22,3.22,4.61,4.86,7.27,7.58,4.79,4.9,7.75,11.17,12.95,15.88,11,9.96,26.08,12.99,39.43,17.4,26.64,8.81,51.55,15.33,79.99,18.86,18.94,2.36,37.72,1.79,56.66,3.1,17.83,1.22,35.2,5.32,52.59,9.13,6.8,1.5,15.82.2,22.02,2.05,5.28,1.59,8.38,7.47,11.72,11.58,15.49,19.03,28.84,39.75,43.69,59.32,10.1,13.29,20.04,21.9,25.93,37.18,4.81,12.47,12.45,24.84,20.03,36.18,8.85,13.27,19.91,28.72,31.26,39.94,10.3,10.18,22.91,16.18,35.17,23.18,16.72,9.53,31.98,17.12,50.89,22.59,36.92,10.69,73.75,16.72,112.21,16.63,15.33-.03,30.66,0,46.01,0,9.64,0,22.04-2.12,31.31.3,10.05,2.62,17.83,12.72,24.28,20.14,12.42,14.27,25.26,27.32,38.39,40.65,15.23,15.47,23.05,34.17,44.57,43.53,39.2,17.03,83.95,15.24,124.57,27.39,11.72,3.51,22.37,7.96,33.92,10.74,13.75,3.31,27.16,4.97,41.13,9.78,15.62,5.38,27.68,16.2,41.1,25.72,25.81,18.32,49.67,38.83,76,56.2,5.56,3.66,12.04,10.06,18.03,11.44,8.35,1.92,23.19-4.25,31.26-7.42,13.91-5.47,27.98-7.76,42.8-7.72,13.6.04,28.2-1.42,41.73-.2,12.77,1.15,20.79,6.45,31.29,10.97,15.53,6.68,29.79,16.29,44.96,24.42,10,5.36,20.18,9.33,30.63,13.69,12.46,5.2,23.07,13.27,35.91,17.8,40.73,14.38,78.92,28.11,116.23,50.64,10.04,6.06,21.18,10.81,30.71,17.6,7.45,5.32,12.44,14.94,20.31,19.5,10.59,6.13,20.16,5.91,32.71,5.92,11.75,0,23.77-.8,35.48-.1,6.44.39,9.44,2.46,15.27,5,11.91,5.18,26.21,8.01,38.74,10.74,13.65,2.97,27.52,5.55,41.13,8.68,10.35,2.4,17.38,8.11,26.86,11.93,5.91,2.37,12.72,4.84,18.69,6.86,2.51.85,4.29-.77,7.1.66,1.5.77,1.95,3.45,3.38,4.23,8.91,4.87,20.71,6.02,29.59,9.68,7.24,3,13.05,7.62,19.66,11.61,14.63,8.83,30.54,16.95,45.62,25.54,8.78,5,19.39,7.7,27.71,12.61,6.74,3.97,11.89,10.13,18.34,14.87,5.78,4.24,17.04,9.51,24.42,10.84,6.34,1.15,13.53-1.75,19.83-.39,6.72,1.45,10.18,4.07,17.39,4.16,12.47.14,23.26,3.95,35.62,6.68,42.09,9.31,85,2.35,127.65,5.87,44.55,3.69,91.38,1.19,135.2,11.64,11.82,2.81,22.55,8.92,33.91,13.06,20.58,7.47,43.21,8.17,64.82,10.68,60.02,7.01,120.63-1.96,180.45,6.7,52.93,7.65,108.71,6.35,158.64,26.59,25.93,10.52,51.36,21.75,77.61,31.52,21.04,7.83,42.34,15.42,64.25,20.49,15.18,3.5,31.15,4.94,46.57,7.4,20.71,3.32,38.09,9.28,58.11,14.89,40.98,11.48,82.88,16.34,124.95,21.4,27.39,3.29,54.9,6.37,82.5,6.96,38.36.81,74.4,4.76,112.62,9.63,40.09,5.12,80.21,8.97,120.37,13.23,60.94,6.46,120.93,20.51,181.64,28.93,67.25,9.32,135.13,15.73,202.23,25.84,88.95,13.39,176.61,34.17,265.59,47.36,66.81,9.91,134.03,15.18,200.7,26.45,67.33,11.38,135.57,21.71,203.51,28.73,8.81.91,17.62,1.81,26.42,2.74Z"/><path class="k" d="m4494.58,767.15v1949.22H-494.58v-846.92c40.49-.49,80.72-1.9,121.3-3.4,62.89-2.32,128.09-1.95,190.65,5.55,21.64,2.59,44.98.57,65.31,9.78,7.82,3.54,13.97,8.01,22.2,10.73,21.24,7.06,39.89,7.01,61.64,9.13,21.85,2.14,42.59,3.6,64.67,3.59,5.41,0,10.85.15,16.26.07,11.6-.15,19.76-4.24,30.9-7.03,22.92-5.77,47.08-4.51,70.14-10.36,20.2-5.12,39.87-12.62,59.75-18.86,18.62-5.86,39.72-13.06,55.95-24.4,7.84-5.48,11.6-14.22,20.76-13.11,8.94,1.1,19.13,8.45,27.63,11.11,15.32,4.78,29.18,6.32,44.92,8.35,26.96,3.47,54.29,4.95,81.68,8.1,36.12,4.15,71.12,12.81,107.46,16.02,22.22,1.96,44.4,3.31,66.57,5.68,13.38,1.44,24.06,4.63,37.38,4.87,21.05.36,29.87-19.76,41.78-35.18,4.23-5.46,9.63-9.86,14.23-14.94,2.52-2.8,5.57-9.03,8.48-10.97,5.74-3.81,16.72-4.69,23.29-6.46,23.77-6.38,50.98-2.66,75.49-2.92,11.87-.14,21.94,3.49,33.51,4.2,5.74.36,10.84-.44,16.56.6,39.69,7.21,78.53,20.99,114.13,39.87,18.18,9.65,36.11,20.13,50.6,34.98,11.14,11.43,19.75,29.68,32.94,38.94,9.24,6.48,18.03-.1,28.87-1.17,21.54-2.12,42.43-3.06,64.01-3.8,25.92-.87,51.51-4.3,77.5-4.16,29.99.15,59.97.15,89.96.14,22.66-.01,52.19,4.84,73.49-2.85,12.98-4.69,26.28-6.17,40.13-7.9,64.4-8.03,129.59-4.72,194.37-4.98,34.61-.14,68.3,2.37,102.65,6.1,11.27,1.22,27.01,4.76,38.17,2.07,9.53-2.29,18.64-8.32,27.86-11.93,18.03-7.05,35.48-15.6,53.14-23.56,21.6-9.73,41.98-21.69,63.49-31.53,10.65-4.87,19.75-11.78,30.81-15.54,15.53-5.3,31.44-14.21,46.73-21.28,15.41-7.13,31.63-11.17,47.32-17.63,10.2-4.18,20.05-9.32,30.81-12.06,24.07-6.1,49.16-9.84,73.56-14.55,10.85-2.09,21.49-4.52,32.55-4.85,7.19-.2,18.14,2.26,25.06-.16,6.67-2.32,14.27-8.22,21.25-11.37,7.05-3.17,14.4-4.54,21.49-7.38,9.45-3.81,17.54-10.44,26.47-15.1,44.36-23.14,91.31-41.72,136.32-63.68,15.56-7.6,31.33-14.73,46.91-22.31,11.21-5.46,17.18-14.39,27.42-20.16,16.98-9.56,44.84-4.38,63.48-4.38,31.46,0,63.54,2.71,93.34-8.62,41.24-15.67,85.15-30.65,108.09-71.22,4.67-8.25,6.92-14.69,12.31-22.53,5.09-7.41,10.91-16.72,12.09-25.71.87-6.62-3.61-19.24-.64-25.04,3.1-6.05,12.29-6.13,17.92-7.25,20.91-4.12,40.58-13.01,60.43-19.64,31.86-10.66,65.94-10.82,98.75-16.33,22.6-3.79,45.28-9.21,67.5-14.89,10.5-2.69,20.85-7.23,31.69-7.97,10.04-.69,18.02,1.86,26.43-3.19,16.44-9.84,33-24.51,47.23-37.39,13.48-12.21,29.03-22.95,39.64-37.83,5.99-8.4,9.81-18.27,14.87-27.22,4.46-7.88,6.08-8.63,14.38-13.32,19.99-11.29,39.82-21.64,61.39-29.56,11.15-4.1,21.09-5.11,31.98-8.42,7.14-2.16,16.62-7.21,23.42-10.57,11.17-5.52,20.29-15.97,28.69-24.94,12.57-13.41,19.4-31.86,29.35-47.11,6.34-9.71,11.86-15.87,20.33-23.79,9.04-8.45,18.17-15.08,28-22.64,7.94-6.1,16.21-12.98,23.66-18.89,3.82-3.02,7.7-6.75,12.87-7.57,8.49-1.35,15.59,4.92,23.26,8.05,6.48,2.64,13.86,5.21,20.78,6.45,6.28,1.12,12.47.11,18.67,1.77,10.77,2.89,16.93,13.78,29.12,10.03,7.63-2.36,13.15-8.4,18.58-13.87,7.55-7.62,15.99-11.18,24.52-17.49,19.55-14.46,37.64-31.02,56.93-45.83,21.74-16.69,47.97-29.1,73.94-37.52,11.2-3.62,21.89-4.89,33.49-9.13,26.03-9.56,51.04-19.51,72.02-37.64,9.88-8.53,14.95-18.59,25.37-7.86,9.28,9.55,14.62,22.61,22.47,33.36,6.65,9.1,11.79,11.41,22.45,15.03,17.52,5.97,27.26,16.95,41.15,28.1,8.76,7.03,14.15,22.44,27.27,19.61,7.65-1.65,13.03-9.48,19.38-13.92,9.89-6.93,19.46-13.83,29.1-21.16,18.33-13.96,36.05-28.29,52.46-44.55,13.82-13.7,27.51-27.19,45.52-35.67,9.54-4.49,17.1-6.1,25.94-12.47,9.05-6.51,19.76-11.57,28.24-18.7,5.99-5.03,10.18-12.83,18.23-14.42,4.54-.89,10.71.27,15.44.29,17.1.05,34.21,0,51.32,0,11.74,0,21.13,1.79,30.65-4.8,6.5-4.5,14.27-6.38,20.05-11.53,7.32-6.51,10.9-15.43,19.33-21.8,11.82-8.93,23.19-19.59,34.4-29.42,8.58-7.52,18.15-11.22,27.16-19.38,11.4-10.32,16.97-22.89,26.34-34.19,5.92-7.15,11.89-11.38,19.12-16.2,9.68-6.45,17.77-8.73,29.88-7.47,8.99.94,16.18,7.96,23.4,13.78,6.85,5.52,13.21,11.71,19.5,18Z"/><path class="j" d="m4494.58,954.63v1761.74H-494.58v-538.43c28.4-3.34,56.88-6.35,85.29-8.77,37.13-3.17,75.4-5.52,112.68-6.32,45.61-.97,91.08-4.04,136.72-3.89,112.14.36,224.28-.12,336.42.13,63.7.14,127.29-1.44,190.84-6.2,62.28-4.67,123.36-12.27,186.02-13.28,127.81-2.05,257.95.94,384.5,20.08,66.56,10.08,133.42,25.45,199.49,38.74,50.12,10.08,97.96,14.12,149.09,15.13,136.81,2.69,276.13-10.54,408.48-46.79,99.45-27.22,191.24-66.08,279.91-118.14,23.53-13.82,46.36-22.89,72.55-31.27,40.44-12.96,83.59-14.85,124.88-24.49,40.48-9.43,82.04-13.07,122.34-23.22,34.83-8.77,68.48-21.64,102.38-33.38,19.28-6.67,39.15-14.63,56.91-24.86,23.63-13.62,48.71-24.3,75.72-31.58,31.34-8.46,61.17-21.39,92.45-30.15,26.31-7.36,53-12.47,79.17-20.41,23.49-7.12,48.74-5.87,71.68-12.39,17.33-4.92,33.69-19.34,48.32-30.05,34.58-25.32,73.04-46.43,104.23-75.71,13.33-12.53,31.13-23.1,48.56-29.14,19.99-6.92,37.49-18.64,55.96-28.9,18.19-10.09,36.71-21.23,51.44-36.09,10.53-10.61,24.78-24.08,26.03-40.09,9.15-2.65,21.72-2.82,31.51-4.5,10.44-1.77,21.13-2.61,31.49-4.77,25.82-5.4,52.29-12.74,78.66-14.77,18.98-1.45,37.77-4.36,56.86-4.02,12.35.21,22.14-.74,33.96-3.45,6.6-1.51,9.93-.54,14.97-6.06,5.26-5.76,7.33-14.19,10.99-20.71,6.89-12.26,16.34-24.65,26.59-33.19,3.56-2.97,5.52-5,9.15-7.37,4.28-2.8,8.94-4.66,13.75-7.05,34.72-17.25,69.79-32.67,106.99-44.24,23.82-7.41,50.4-20.44,75.4-22.71,12.2-1.11,20.9,2.9,30.93-5.32,8.23-6.75,13.43-16.5,21.42-23.43,10.23-8.88,21.57-16.09,31.4-25.65,23.04-22.4,54.75-42.73,72.75-69.75,3.03-4.56,4.76-9.35,8.3-13.54,5.81-6.87,13.33-8.57,21.77-12.68,30.08-14.64,61.02-29.91,90.33-46,26.19-14.39,51.1-30.43,77.98-43.7,20.7-10.23,40.96-21.53,60.67-33.58,12.37-7.56,21.49-17.39,32.2-26.81,34.32-30.13,81.09-40.78,124.33-54.18,43.44-13.46,88.03-28.16,133.02-35.47,26.98-4.39,51.86-5.53,77.85-14.32,39.18-13.24,76.77-27.8,113.83-44.99Z"/><path class="h" d="m4494.58,1112.02v1604.35H-494.58v-600.17c67.12-10.44,137.63-3.85,205.37-4.17,46.02-.21,91.72,3.89,137.71,4.09,27.41.11,54.12-4.06,81.58-3.97,112.28.35,223.94,3.87,336.12,9.91,40.08,2.16,80.12,1,120.18,2.57,34.12,1.34,68.13,4.67,102.23,6.27,35.56,1.67,71.2.79,106.79.79,13.71,0,24.91.72,37.94-3.55,19.84-6.5,40.79-9.56,61.02-14.65,35.37-8.92,69.87-18.47,105.81-25.22,82.63-15.54,167.77-23.16,251.63-28.12,40.1-2.37,79.99-6.88,120.18-6.66,30.3.16,59.89-.9,90.12-3.45,57.84-4.89,116.35-5.41,174.38-4.57,46.6.66,92.78,7.55,139.3,8.2,40.32.56,79.89-1.64,119.46-8.98,43.6-8.1,85.05-25.94,126.51-41.87,31.86-12.24,62.69-25.2,92.1-42.6,10.91-6.46,20.71-13.13,32.47-17.3,8.35-2.95,14.48-1.47,22.97-2.56,7.58-.96,14.5-5.03,21.75-7.25,9.71-2.96,19.07-4.02,29.17-4.77,23.8-1.75,46.51-4.84,70.57-4.11,14.07.42,27.66,2.91,41.64,3.74,13.45.77,27.02-.75,40.39,1.22,13.36,1.96,25.68,3.44,39.19,3.04,14.15-.41,25.78-6.31,39.64-9.73,58.97-14.55,117.5-34.16,178.02-41.17,11.3-1.31,21.11-3.94,32.5-3.84,6.19.05,13.03.89,19.18.2,20.04-2.25,40.08-7.25,60.43-8.22,26.71-1.3,53.82.26,80.58.1,15.56-.09,29.8,1.07,45.06,3.14,4.47.61,9.11,1.61,13.68.95,8.24-1.19,16.07-5.04,23.93-8.72,35.73-16.72,70.19-36.27,105.75-52.95,16.32-7.66,34.16-4.88,51.85-4.9,25.61-.01,51.53-1.19,77.12-.2,14.61.56,27.74,4.19,42.39,4.11,12.98-.07,25.99-.07,38.99-.01,36.69.18,75.14-3.15,110.77-12.52,24.81-6.51,49.82-12.11,74.65-18.47,18.6-4.76,36.08-13.23,54.45-18.8,23.78-7.22,46.65-14.87,69.98-23.54,39.54-14.68,79.56-31.01,120.03-40.95,52.44-12.88,106.29-39.38,151.97-67.49,49.37-30.36,95.54-67,139.54-104.67,7.45-6.4,12.44-13.91,20.29-19.68,26.99-19.84,49.54-42.66,72.81-66.83,11.3-11.73,18.45-26.31,29.77-38.09,5.67-5.9,11.75-11.47,17.57-17.23,9.1-9.02,18.32-18.59,26.48-28.42,3.77-4.55,6.43-9.36,10.39-13.49,6.16-6.43,14.22-11.69,19.93-18.75,4.83-5.98,9.11-9.43,16.31-10.79,8.58-1.62,17.59-2.41,26.39-3.91,9.75-1.66,18.88-1.92,28.43-3.91,9.96-2.07,20.33-1.99,30.51-3.91,13.16-2.47,26.64.4,39.84-1.74,12.42-2.01,23.53-3.22,36.33-3.05,15.71.21,24.8-8.62,37.91-14.67,5.77-2.65,9.28-6.02,14.58-8.89,4.05-2.19,10.94-2.07,15.34-3.62,12.34-4.35,23.67-10.77,36.33-14.75,14.93-4.71,26.51-9.94,38.39-20.53,6.49-5.78,13.91-11.19,19.75-17.7,4.67-5.21,7.54-11.76,12.31-16.83,5.93-6.32,14.66-13.67,22.57-17.57,6.19-3.05,13.51-3.24,19.54-4.72,6.03-1.49,13.2-3.41,19.55-5.86,11.64-4.49,23.52-6.43,34.92-12.34,9.7-5.02,18.18-11.86,27.72-17.1,11.57-6.35,23.68-10.13,36.07-14.63,14-5.08,27.93-9.43,41.99-13.48Z"/><path class="i" d="m4494.58,2062.73v630.17H-494.58v-1640.63c3.26.01,6.53,0,9.79-.01,13.46-.09,25.88,3.11,39.2,4.02,18.87,1.29,37.82,3.05,56.32,7.52,22.99,5.55,41.33,21.18,63.95,26.9,28.5,7.2,56.55,18.12,83.44,27.96,50.28,18.4,103.39,39.99,147.25,71.67,43.39,31.33,88.38,59.86,130.7,92.76,8.04,6.26,16.29,15.29,26.18,18.59,29.42,9.78,62.21,13.44,92.79,17.38,32.04,4.12,63.34,13.18,94.9,19.85,2.82.59,11.95,1.27,14.86,3.51,4.56,3.47,4.37,7.92,11.87,7.72,3.02,17.09,11,28.5,20.18,43.28,17.68,28.47,38.92,54.22,66.56,73.75,10.58,7.47,20.83,14.11,33.34,17.45,6.79,1.82,14.76,2.55,20.69,6.62,2.45,1.67,4.07,4.82,6.42,6.68,8.25,6.51,20.73,11.18,30.04,15.95,17.54,8.98,37.48,12.54,55.97,19.26,19.94,7.25,39.54,15.3,59.47,22.6,24.28,8.91,49.33,15.62,73.19,25,9.33,3.67,19.78,6,30.5,8.11,44.65,8.8,88.56,20.43,130.73,37.46,16.99,6.86,32.97,11.96,49.47,20.5,10.34,5.36,20.88,11.07,31.43,15.92,11,5.06,19.94,8.4,30.21,15.72,22.61,16.12,42.53,34.68,62.09,54.22,19.73,19.7,38.23,45.74,64.74,57.12,8.09,3.47,15.21,6.75,22.86,11.71,20.54,13.32,46.82,20.98,71.43,21.39,19.55.34,41.58-2.26,60.03,1.79,9,1.99,19.05,6.68,28.85,8.8,18.38,3.97,37.11,6.47,55.51,10.74,9.39,2.19,18.93,3.87,28.29,5.97,4.93,1.11,7.2,2.61,11.66,3.92,6.7,1.99,15.62,1.07,22.79,2.75,18.08,4.21,35.96,5.72,54.51,6.88,69.11,4.36,136.03,15.53,203.59,30.45,21.46,4.74,42.87,10.31,63.89,16.74,8.38,2.56,16.13,5.57,24.92,5.83,21.08.64,41.4,3.8,62.86,3.71,23.44-.09,47.07,1.14,70.46-.31,21.86-1.36,43.14-3.84,65.12-3.67,14.82.11,29.59-1.27,42.29,3.89,14.85,6.05,31.01,11.07,47.87,12.93,47.67,5.27,94.18,13.8,141.4,22.29,56.25,10.11,112.08,27.52,169.31,30.6,32.27,1.72,64.97.55,95.24,11.76,8.94,3.31,16.79,4.83,26.34,4.68,11-.17,21.39.74,32.35,1.95,29.47,3.24,59.04,1.99,88.68,1.91,78.61-.21,155.87,5.01,234.18,10.82,75.19,5.56,151.17,10.27,224.94,26.55,8.29,1.84,16.76,3.95,25.18,5.12,6.55.91,13.75-.69,20.05.94,6.82,1.76,10.44,3.22,18.48,3.92,40.8,3.52,81.04,4.5,122.32,2.95,59.89-2.26,119.77-9.89,179.45-15.15,63.78-5.61,127.9-8.72,191.9-10.92,122.73-4.22,241.84,7.21,361.56,33.62,68.57,15.13,133.41,40.12,204.59,40.25,39.37.08,79.42,1.67,118.67-.89,40.84-2.67,79.87-10.82,120.07-17.88,36.46-6.4,72.96-14.34,109.71-18.8,10.46-1.26,20.99-2.76,31.53-4.29Z"/></svg>