<svg width="1024" height="500" viewBox="0 0 1024 500" fill="none" xmlns="http://www.w3.org/2000/svg">
<rect width="1024" height="500" fill="white"/>
<g clip-path="url(#clip0_1467_195)">
<path d="M380.218 185.037V264.022H362.535V231.944H327.558V264.022H309.875V185.037H327.558V216.34H362.535V185.037H380.218ZM418.515 265.379C413.139 265.379 408.346 264.087 404.136 261.502C399.925 258.983 396.654 255.461 394.322 250.939C391.991 246.416 390.825 241.312 390.825 235.626C390.825 229.941 391.991 224.837 394.322 220.314C396.654 215.791 399.925 212.27 404.136 209.75C408.346 207.166 413.139 205.874 418.515 205.874C425.835 205.874 431.276 208.264 434.838 213.045V207.23H452.132V264.022H434.838V258.207C431.276 262.989 425.835 265.379 418.515 265.379ZM421.236 250.648C425.446 250.648 428.814 249.259 431.34 246.481C433.866 243.638 435.129 240.02 435.129 235.626C435.129 231.233 433.866 227.647 431.34 224.869C428.814 222.026 425.446 220.605 421.236 220.605C417.155 220.605 413.884 222.026 411.423 224.869C408.961 227.647 407.73 231.233 407.73 235.626C407.73 240.02 408.961 243.638 411.423 246.481C413.884 249.259 417.155 250.648 421.236 250.648ZM465.186 207.23H482.48V213.045C486.042 208.264 491.354 205.874 498.414 205.874C502.819 205.874 506.706 206.907 510.074 208.975C513.441 210.978 516.033 213.885 517.846 217.697C519.725 221.509 520.664 226 520.664 231.168V264.022H503.37V234.076C503.37 229.747 502.495 226.452 500.746 224.19C499.062 221.865 496.601 220.702 493.362 220.702C489.994 220.702 487.338 221.961 485.395 224.481C483.452 227.001 482.48 230.458 482.48 234.851V264.022H465.186V207.23ZM553.738 265.379C549.333 265.379 545.446 264.346 542.078 262.278C538.71 260.275 536.087 257.368 534.209 253.556C532.395 249.743 531.488 245.253 531.488 240.084V207.23H548.782V237.177C548.782 241.506 549.624 244.833 551.309 247.159C553.057 249.421 555.551 250.551 558.79 250.551C562.158 250.551 564.814 249.291 566.757 246.772C568.7 244.252 569.672 240.795 569.672 236.402V207.23H586.966V264.022H569.672V258.207C566.109 262.989 560.798 265.379 553.738 265.379ZM600.014 207.23H617.308V212.658C619.057 210.332 621.033 208.62 623.235 207.521C625.502 206.423 628.19 205.874 631.299 205.874C634.861 205.874 638.1 206.584 641.015 208.006C643.93 209.363 646.326 211.365 648.205 214.014C650.342 211.301 652.965 209.266 656.075 207.909C659.184 206.552 662.876 205.874 667.151 205.874C671.49 205.874 675.312 206.907 678.616 208.975C681.919 210.978 684.478 213.885 686.291 217.697C688.104 221.509 689.012 226 689.012 231.168V264.022H671.717V234.076C671.717 229.747 670.907 226.452 669.288 224.19C667.669 221.865 665.272 220.702 662.098 220.702C659.313 220.702 657.143 221.768 655.589 223.9C654.099 226.032 653.29 229.133 653.16 233.204V264.022H635.865V234.076C635.865 229.747 635.055 226.452 633.436 224.19C631.817 221.865 629.42 220.702 626.247 220.702C623.462 220.702 621.291 221.768 619.737 223.9C618.247 226.032 617.438 229.133 617.308 233.204V264.022H600.014V207.23Z" fill="black"/>
<path d="M707.837 197C715.173 197 721.12 191.068 721.12 183.75C721.12 176.432 715.173 170.5 707.837 170.5C700.501 170.5 694.553 176.432 694.553 183.75C694.553 191.068 700.501 197 707.837 197Z" fill="black"/>
<path d="M343.27 294.861V290.961H351.012V287.251H356.06V290.961H363.878L363.84 294.861H343.27ZM375.416 302.054H370.786V313.373H365.776V287.289H370.786V297.927H375.416V302.054ZM362.133 302.811C362.133 306.824 358.527 309.549 353.555 309.549C348.508 309.549 344.978 306.824 344.978 302.811C344.978 298.874 348.508 296.11 353.555 296.11C358.527 296.11 362.133 298.874 362.133 302.811ZM349.76 302.811C349.76 304.741 351.278 305.764 353.555 305.764C355.832 305.764 357.351 304.741 357.351 302.811C357.351 300.88 355.832 299.896 353.555 299.896C351.278 299.896 349.76 300.88 349.76 302.811ZM372.038 317.575V321.55H348.242V311.442H353.252V317.575H372.038ZM408.167 322.156H403.423V287.289H408.167V322.156ZM400.994 287.857V320.604H396.326V303.114H391.961V299.063H396.326V287.857H400.994ZM389.342 295.996C389.342 301.637 390.86 307.429 395.604 310.571L392.872 314.433C389.836 312.616 388.052 309.663 386.951 306.142C385.737 310.079 383.725 313.297 380.537 315.228L377.539 311.48C382.662 308.376 384.522 302.129 384.522 296.186V290.318H389.342V295.996ZM437.084 312.351V287.327H442.132V312.351H437.084ZM432.605 298.381C432.605 303.454 428.469 307.202 423.117 307.202C417.766 307.202 413.591 303.454 413.591 298.381C413.591 293.233 417.766 289.523 423.117 289.523C428.469 289.523 432.605 293.233 432.605 298.381ZM418.487 298.381C418.487 301.259 420.536 302.886 423.117 302.886C425.736 302.886 427.71 301.259 427.71 298.381C427.71 295.504 425.736 293.839 423.117 293.839C420.536 293.839 418.487 295.504 418.487 298.381ZM443.005 321.55H418.867V309.89H423.876V317.575H443.005V321.55ZM477.159 322.231H472.149V287.251H477.159V322.231ZM459.245 289.599C464.711 289.599 468.885 293.195 468.885 298.192C468.885 303.189 464.711 306.786 459.245 306.786C453.78 306.786 449.643 303.189 449.643 298.192C449.643 293.195 453.78 289.599 459.245 289.599ZM459.245 293.876C456.513 293.876 454.501 295.466 454.501 298.192C454.501 300.918 456.513 302.508 459.245 302.508C461.978 302.508 463.989 300.918 463.989 298.192C463.989 295.466 461.978 293.876 459.245 293.876ZM448.163 311.101C454.311 311.101 462.889 311.064 470.252 309.966L470.555 313.562C463.041 315.076 454.843 315.152 448.808 315.152L448.163 311.101ZM523.176 318.219H491.524V314.13H504.807V306.861H495.205V289.674H519.533V293.687H500.253V302.849H519.798V306.861H509.817V314.13H523.176V318.219ZM542.188 304.174C534.749 304.174 529.549 301.145 529.549 296.299C529.549 291.605 534.749 288.463 542.188 288.463C549.626 288.463 554.826 291.605 554.826 296.299C554.826 301.145 549.626 304.174 542.188 304.174ZM542.188 292.438C537.595 292.438 534.673 293.725 534.673 296.299C534.673 298.874 537.595 300.199 542.188 300.199C546.78 300.199 549.664 298.874 549.664 296.299C549.664 293.725 546.78 292.438 542.188 292.438ZM544.655 310.799V322.194H539.645V310.799H526.437V306.786H558.09V310.799H544.655ZM590.309 322.231H585.299V287.289H590.309V322.231ZM579.872 313.865H563.059V290.431H579.872V313.865ZM567.993 309.928H574.938V294.369H567.993V309.928ZM602.451 314.092L599.642 322.004H595.354L596.91 314.092H602.451ZM614.166 294.861V290.961H621.908V287.251H626.956V290.961H634.774L634.737 294.861H614.166ZM646.312 302.054H641.682V313.373H636.672V287.289H641.682V297.927H646.312V302.054ZM633.029 302.811C633.029 306.824 629.423 309.549 624.451 309.549C619.404 309.549 615.874 306.824 615.874 302.811C615.874 298.874 619.404 296.11 624.451 296.11C629.423 296.11 633.029 298.874 633.029 302.811ZM620.656 302.811C620.656 304.741 622.174 305.764 624.451 305.764C626.728 305.764 628.247 304.741 628.247 302.811C628.247 300.88 626.728 299.896 624.451 299.896C622.174 299.896 620.656 300.88 620.656 302.811ZM642.934 317.575V321.55H619.138V311.442H624.148V317.575H642.934ZM664.868 301.183C657.164 301.183 652.23 298.684 652.23 294.52C652.23 290.318 657.164 287.819 664.868 287.819C672.611 287.819 677.544 290.318 677.544 294.52C677.544 298.684 672.611 301.183 664.868 301.183ZM664.868 291.605C660.124 291.605 657.391 292.551 657.391 294.52C657.391 296.451 660.124 297.435 664.868 297.435C669.764 297.435 672.383 296.451 672.383 294.52C672.383 292.551 669.764 291.605 664.868 291.605ZM667.373 309.928H676.899V321.739H652.761V309.928H662.363V306.937H649.08V302.962H680.656V306.937H667.373V309.928ZM657.657 313.827V317.84H671.965V313.827H657.657Z" fill="black"/>
</g>
<defs>
<clipPath id="clip0_1467_195">
<rect width="419" height="159" fill="white" transform="translate(302.5 170.5)"/>
</clipPath>
</defs>
</svg>
